<svg version="1.1" id="Layer_1" xmlns="http://www.w3.org/2000/svg" xmlns:xlink="http://www.w3.org/1999/xlink" x="0px" y="0px"
	 width="100%" viewBox="0 0 512 512" enable-background="new 0 0 512 512" xml:space="preserve">
<path fill="#F29251" opacity="1.000000" stroke="none" 
	d="
M104.878052,207.967331 
	C115.485214,193.135071 125.201141,177.717773 132.355942,160.939697 
	C136.144043,152.056564 138.363617,142.504532 141.926941,133.192749 
	C148.430771,141.201050 154.775528,148.975204 160.024887,157.429489 
	C164.699478,164.958099 166.027298,173.555115 164.190384,182.465698 
	C160.596191,199.900436 156.972610,217.330688 153.609711,234.810608 
	C152.565720,240.237045 152.323914,245.817795 151.705994,251.407837 
	C162.291733,251.632538 169.906250,245.450958 171.793076,235.867416 
	C173.270462,228.363480 174.374619,220.777267 176.100693,213.333374 
	C178.029922,205.013351 180.473724,196.812622 183.073013,187.149353 
	C213.519119,225.150085 242.732300,261.941010 278.523560,293.886841 
	C279.859070,281.911743 278.888580,272.108887 271.253601,262.983887 
	C250.419968,238.084549 230.262741,212.618164 209.914124,187.314865 
	C204.871811,181.044800 200.120255,174.540924 194.863678,167.658295 
	C199.661957,166.237473 203.411896,164.750702 207.303589,164.038605 
	C226.105927,160.598145 244.942047,157.341019 263.775604,154.073151 
	C270.775452,152.858597 275.603180,148.760468 277.141785,142.247833 
	C271.986359,141.881241 266.843353,140.972290 261.766022,141.252762 
	C244.027969,142.232605 226.316589,143.685226 208.586380,144.822449 
	C202.835693,145.191284 196.917938,146.020004 191.318863,145.124237 
	C173.188339,142.223587 164.371918,128.276001 156.079834,113.961075 
	C160.100510,111.628426 163.945206,108.893875 168.176132,107.041428 
	C179.155624,102.234245 190.491714,98.213882 201.337570,93.136322 
	C213.828018,87.288826 225.806030,80.351799 238.260330,74.420738 
	C253.246048,67.284142 268.882996,62.318340 285.808197,63.002495 
	C286.766876,63.041241 287.724243,63.112839 290.617249,63.282887 
	C284.098877,71.089119 278.426025,77.882805 272.335449,85.176758 
	C278.997955,84.309189 285.415039,83.778160 291.710297,82.597496 
	C311.670166,78.854065 331.481903,74.169197 351.552673,71.222160 
	C364.880676,69.265182 378.597260,68.688614 392.059692,69.290054 
	C404.116119,69.828697 416.273071,72.120483 426.880737,79.251495 
	C420.982208,91.602310 410.787170,99.430138 400.541992,105.757744 
	C411.394379,107.437263 422.958344,108.438454 434.119476,111.117683 
	C457.644226,116.764793 473.358246,131.653793 482.294373,154.656631 
	C466.769775,155.620743 453.110016,161.519272 439.260040,166.943359 
	C428.123108,171.304916 416.543396,173.480347 404.278717,171.390930 
	C415.019745,178.357468 420.821228,188.471756 424.368561,201.196869 
	C420.093933,200.756775 416.427826,200.200607 412.743896,200.031204 
	C397.393890,199.325317 383.186462,203.790161 369.077820,209.288406 
	C361.603912,212.201050 353.601654,213.757828 346.170441,215.833801 
	C388.345520,237.217758 417.214264,270.402893 428.877014,318.050690 
	C415.974915,317.766357 403.381989,317.468903 390.923279,322.755676 
	C404.482697,332.996918 416.114594,344.745728 425.528137,358.655273 
	C416.615082,359.649414 408.012360,360.844391 399.405762,360.873260 
	C382.118530,360.931244 364.823090,360.543243 347.542114,359.992279 
	C322.007233,359.178162 296.970367,354.920715 272.387787,348.064789 
	C224.435196,334.691101 182.296234,311.591553 148.609177,274.204010 
	C132.443222,256.262238 119.133041,236.536484 109.158333,214.536835 
	C108.091469,212.183823 106.321732,210.149490 104.878052,207.967331 
z"/>
<path fill="#EA7649" opacity="1.000000" stroke="none" 
	d="
M104.569824,208.115784 
	C106.321732,210.149490 108.091469,212.183823 109.158333,214.536835 
	C119.133041,236.536484 132.443222,256.262238 148.609177,274.204010 
	C182.296234,311.591553 224.435196,334.691101 272.387787,348.064789 
	C296.970367,354.920715 322.007233,359.178162 347.542114,359.992279 
	C364.823090,360.543243 382.118530,360.931244 399.405762,360.873260 
	C408.012360,360.844391 416.615082,359.649414 425.670654,358.973816 
	C432.670654,369.765533 440.382965,380.049194 445.463348,391.500488 
	C451.339630,404.745941 454.990356,418.990234 459.395660,432.868073 
	C460.399597,436.030762 460.535095,439.469116 460.944641,442.003021 
	C451.345428,440.980347 442.128510,439.273621 432.893494,439.169464 
	C415.138397,438.969208 397.373749,439.894775 379.611816,439.948669 
	C360.472321,440.006775 341.965393,436.345001 324.622498,428.141693 
	C308.971558,420.738617 296.087891,410.019470 287.754242,394.458649 
	C287.541504,394.061371 287.067963,393.803741 286.218170,393.024384 
	C288.805573,412.996765 289.450348,432.368286 284.250977,452.289520 
	C245.534653,431.055664 221.347565,398.585785 205.146317,358.111328 
	C205.072311,383.232544 200.735565,406.292175 184.643692,426.126740 
	C184.660034,412.627930 178.944046,401.174377 173.098969,390.520325 
	C171.467285,398.868622 170.049713,407.758087 167.946838,416.482361 
	C165.066483,428.432312 159.755417,439.492706 152.687881,449.431549 
	C148.214935,455.721649 145.947586,462.256805 145.761703,470.704132 
	C113.119995,452.260437 100.622025,424.763214 105.036873,388.022888 
	C95.057663,395.905396 89.985291,406.284058 85.415680,417.125763 
	C68.954941,396.918884 74.836075,328.746063 97.585274,280.411987 
	C89.499039,283.605682 82.353523,285.890228 75.719086,289.199432 
	C69.097412,292.502258 62.987694,296.831482 55.217953,301.589935 
	C56.472168,294.319489 57.092251,287.916809 58.722332,281.782471 
	C64.480637,260.112701 75.125130,241.223160 91.049011,225.228531 
	C96.068680,220.186523 99.891174,213.952621 104.569824,208.115784 
z"/>
<path fill="#CC4829" opacity="1.000000" stroke="none" 
	d="
M155.948212,113.642807 
	C164.371918,128.276001 173.188339,142.223587 191.318863,145.124237 
	C196.917938,146.020004 202.835693,145.191284 208.586380,144.822449 
	C226.316589,143.685226 244.027969,142.232605 261.766022,141.252762 
	C266.843353,140.972290 271.986359,141.881241 277.141785,142.247833 
	C275.603180,148.760468 270.775452,152.858597 263.775604,154.073151 
	C244.942047,157.341019 226.105927,160.598145 207.303589,164.038605 
	C203.411896,164.750702 199.661957,166.237473 194.863678,167.658295 
	C200.120255,174.540924 204.871811,181.044800 209.914124,187.314865 
	C230.262741,212.618164 250.419968,238.084549 271.253601,262.983887 
	C278.888580,272.108887 279.859070,281.911743 278.523560,293.886841 
	C242.732300,261.941010 213.519119,225.150085 183.073013,187.149353 
	C180.473724,196.812622 178.029922,205.013351 176.100693,213.333374 
	C174.374619,220.777267 173.270462,228.363480 171.793076,235.867416 
	C169.906250,245.450958 162.291733,251.632538 151.705994,251.407837 
	C152.323914,245.817795 152.565720,240.237045 153.609711,234.810608 
	C156.972610,217.330688 160.596191,199.900436 164.190384,182.465698 
	C166.027298,173.555115 164.699478,164.958099 160.024887,157.429489 
	C154.775528,148.975204 148.430771,141.201050 142.257721,132.966644 
	C128.307816,113.037796 114.612541,93.307419 101.113640,73.443588 
	C100.042465,71.867340 99.656349,69.204292 100.107452,67.323479 
	C101.956284,59.615234 104.253059,52.014431 106.815575,42.830875 
	C110.912560,48.654419 114.171783,53.166004 117.304932,57.763515 
	C126.502586,71.259933 135.600266,84.824722 144.842773,98.290215 
	C148.352432,103.403435 152.150177,108.318924 155.948212,113.642807 
z"/>
<path fill="#CC4729" opacity="1.000000" stroke="none" 
	d="
M53.011482,210.946960 
	C52.420334,212.147720 51.914124,212.987228 51.248276,214.091476 
	C45.755596,206.259293 40.327717,198.594284 34.983147,190.871613 
	C31.565790,185.933670 27.624882,181.218857 25.067808,175.856079 
	C20.820997,166.949554 22.501553,157.721146 26.525482,149.196243 
	C29.918526,142.007904 34.332451,135.301453 38.682335,127.704361 
	C46.058559,132.602798 51.626968,138.154755 55.593937,145.195602 
	C65.126167,162.113998 64.326180,179.754364 58.662506,197.555374 
	C57.237049,202.035599 54.974354,206.249435 53.011482,210.946960 
z"/>
<path fill="#CC4729" opacity="1.000000" stroke="none" 
	d="
M437.286469,250.580688 
	C433.457306,244.570724 430.105621,238.784225 431.278137,231.270081 
	C446.773163,230.471115 461.948578,230.165726 475.434479,239.689865 
	C483.565155,245.432007 487.749603,253.549911 489.881744,262.824921 
	C490.938812,267.423401 490.914795,272.270386 491.469208,277.914368 
	C475.908936,270.314728 458.755615,268.948975 445.554871,258.170258 
	C442.750397,255.880386 440.162506,253.325287 437.286469,250.580688 
z"/>
</svg>