<?xml version="1.0" standalone="no"?>
<!DOCTYPE svg PUBLIC "-//W3C//DTD SVG 20010904//EN"
 "http://www.w3.org/TR/2001/REC-SVG-20010904/DTD/svg10.dtd">
<svg version="1.0" xmlns="http://www.w3.org/2000/svg"
 width="498.000000pt" height="494.000000pt" viewBox="0 0 498.000000 494.000000"
 preserveAspectRatio="xMidYMid meet">

<g transform="translate(0.000000,494.000000) scale(0.100000,-0.100000)"
fill="#000000" stroke="none">
<path d="M1957 4919 c-5 -19 -12 -21 -99 -19 -136 3 -128 5 -128 -35 l0 -35
-124 0 -125 0 -3 -37 -3 -38 -75 -5 -75 -5 -3 -32 -3 -32 -72 -3 -72 -3 -3
-37 c-3 -36 -5 -38 -37 -38 -32 0 -34 -2 -37 -37 -3 -35 -6 -38 -37 -41 -43
-4 -61 -22 -61 -60 0 -32 -14 -42 -56 -42 -21 0 -24 -5 -24 -35 0 -33 -2 -35
-34 -35 -36 0 -46 -12 -46 -56 0 -21 -5 -24 -35 -24 -33 0 -35 -2 -35 -35 0
-33 -2 -35 -34 -35 -36 0 -46 -12 -46 -56 0 -21 -5 -24 -35 -24 -33 0 -35 -2
-35 -34 0 -36 -12 -46 -56 -46 -21 0 -24 -5 -24 -35 0 -33 -2 -35 -35 -35 -33
0 -35 -2 -41 -40 -6 -36 -9 -40 -36 -40 -38 0 -63 -26 -63 -64 0 -29 -3 -31
-37 -34 -36 -3 -38 -5 -38 -37 0 -32 -2 -34 -37 -37 -36 -3 -38 -5 -41 -40 -3
-36 -5 -38 -37 -38 l-34 0 -3 -72 -3 -73 -35 -5 -35 -5 -3 -72 -3 -73 -29 0
-30 0 0 -330 0 -330 30 0 29 0 3 -112 3 -113 35 -5 c31 -4 35 -9 38 -37 3 -28
7 -32 35 -35 28 -3 32 -7 35 -34 3 -34 34 -69 60 -69 9 0 18 -9 20 -20 6 -28
32 -55 54 -55 10 0 18 -6 18 -14 0 -7 10 -26 21 -41 18 -21 28 -26 50 -21 26
5 28 3 31 -32 l3 -37 112 -3 113 -3 0 -33 c0 -41 11 -46 91 -46 l59 0 0 -109
0 -110 -32 -3 -33 -3 -3 -349 c-2 -314 -1 -351 14 -368 10 -10 25 -18 35 -18
16 0 19 -11 21 -108 l3 -107 35 -5 35 -5 5 -75 5 -75 35 -5 c31 -4 35 -9 38
-37 3 -32 5 -33 48 -33 l45 0 -3 38 c-3 34 -6 37 -38 42 l-35 5 -5 69 c-5 69
-5 70 -37 78 -39 10 -42 20 -46 142 l-2 88 -35 12 -35 11 1 70 c1 39 2 195 3
348 l1 277 29 0 c16 0 33 6 39 13 6 7 13 60 14 118 l3 104 32 3 c37 4 41 13
45 102 3 53 4 55 33 58 39 5 45 15 45 89 l0 63 40 6 39 6 3 112 3 111 32 3
c37 4 42 14 44 95 2 45 6 61 22 72 11 8 24 12 29 9 4 -3 8 -2 9 3 0 4 2 17 5
28 2 11 7 54 11 95 9 82 18 104 39 96 14 -6 30 32 22 55 -2 7 4 21 14 31 10
10 18 29 18 42 0 19 6 25 28 28 24 3 27 7 24 36 -4 35 10 45 71 51 4 1 7 14 7
30 0 17 4 32 9 36 5 3 12 19 16 35 6 25 11 30 36 30 17 0 32 6 36 15 3 9 13
15 22 13 9 -1 22 1 30 6 10 7 12 5 6 -5 -6 -11 -5 -11 4 -3 7 6 14 20 15 30 2
13 13 21 37 24 31 4 35 9 43 47 l10 42 62 0 c75 -1 84 3 84 41 0 16 7 30 16
34 9 3 75 6 147 6 73 0 137 4 144 8 6 4 13 21 15 37 l3 30 418 2 c431 3 423 3
418 -35 -5 -31 21 -42 97 -42 58 0 80 -4 95 -17 13 -11 17 -12 12 -4 -6 11 -4
13 9 8 10 -4 20 -7 22 -7 3 0 3 -4 0 -9 -3 -5 3 -19 13 -32 16 -20 28 -23 87
-24 l69 0 3 -30 c4 -33 16 -45 50 -45 16 0 22 -6 22 -21 0 -36 19 -59 50 -59
25 0 29 -4 32 -32 3 -27 8 -34 38 -42 19 -5 37 -11 40 -14 3 -2 6 -31 7 -65 1
-34 2 -65 2 -69 1 -5 16 -8 34 -8 l34 0 6 -107 c4 -58 9 -108 11 -111 3 -2 20
-7 38 -11 32 -6 33 -9 36 -56 4 -83 8 -92 47 -99 30 -6 35 -11 35 -34 0 -35
17 -52 52 -52 27 0 27 0 30 -77 l3 -78 35 -5 35 -5 3 -72 3 -73 39 0 c36 0 39
2 42 32 2 25 8 33 23 34 11 1 26 2 33 3 7 1 12 16 12 41 l0 39 88 3 87 3 5 35
c4 31 9 36 40 40 31 4 35 9 38 37 3 28 7 32 35 35 28 3 33 7 37 38 4 31 9 36
40 40 l35 5 3 73 3 72 34 0 35 0 0 120 c0 88 3 122 13 124 6 3 24 7 40 10 l27
6 -2 273 -3 272 -35 5 -35 5 -3 71 -3 72 -39 4 -38 3 -4 -50 c-2 -27 -2 -64 0
-82 3 -28 7 -32 35 -35 l32 -3 -3 -95 c-1 -52 -3 -170 -5 -261 -2 -159 -3
-166 -22 -164 -29 3 -29 3 -14 23 13 15 12 16 -3 3 -10 -7 -15 -17 -12 -22 4
-8 -8 -13 -27 -11 -3 1 -5 -17 -5 -39 1 -31 -2 -38 -14 -34 -12 5 -13 4 -2 -6
6 -7 12 -24 12 -38 0 -15 7 -35 15 -45 8 -11 15 -32 15 -48 0 -22 -6 -29 -27
-34 -47 -11 -53 -22 -53 -95 l0 -69 -29 0 c-33 0 -48 -14 -53 -50 -2 -19 -10
-26 -33 -28 -37 -4 -47 -14 -49 -44 -1 -22 -6 -23 -81 -28 l-80 -5 -3 -32 c-3
-27 -8 -33 -25 -32 -30 1 -59 13 -57 24 0 5 -7 10 -16 11 -24 4 -28 10 -34 67
-9 88 -4 105 33 109 28 3 32 7 35 36 2 17 6 33 10 33 4 1 17 3 28 4 35 4 44
14 44 50 0 33 28 64 44 48 3 -4 13 11 22 34 14 34 20 40 47 41 18 0 48 3 67 6
19 2 41 5 48 5 7 1 10 6 6 13 -5 7 -3 8 7 2 8 -4 24 -9 36 -10 27 -1 60 30 43
41 -5 3 -7 12 -3 18 12 19 12 36 2 43 -6 3 -5 12 3 22 11 13 11 14 0 8 -11 -7
-13 3 -8 50 3 33 5 65 5 72 1 7 6 10 11 7 6 -4 8 -10 5 -15 -3 -4 2 -14 11
-21 12 -10 15 -10 12 1 -5 21 25 18 43 -4 13 -16 16 -16 16 -3 0 9 -4 14 -8
12 -11 -8 -18 22 -7 33 6 6 6 12 -1 16 -5 4 -8 14 -5 24 5 14 4 14 -4 2 -7 -9
-8 -18 -1 -26 7 -8 6 -14 -1 -19 -5 -3 -10 -2 -10 3 0 5 -16 31 -37 57 -29 38
-34 51 -25 65 7 12 7 17 -2 17 -9 0 -12 -21 -12 -68 0 -39 4 -65 10 -62 5 4 6
1 1 -7 -13 -21 -14 -173 -1 -189 8 -11 8 -13 -1 -8 -12 8 -12 -10 0 -30 4 -6
3 -14 -2 -17 -15 -10 -17 23 -16 269 1 157 -2 245 -9 255 -10 13 -9 13 7 1 20
-15 23 -2 5 18 -10 11 -10 13 0 7 19 -11 35 3 21 20 -6 8 -8 14 -5 14 4 0 0 8
-10 17 -18 18 -52 25 -60 11 -3 -4 -11 -8 -17 -8 -7 0 -6 4 3 10 10 6 11 10 3
10 -7 0 -13 5 -13 11 0 5 4 7 10 4 6 -4 6 5 -1 22 -16 41 -19 64 -8 58 5 -4 6
-11 3 -17 -5 -7 -2 -8 6 -3 8 5 11 4 7 -2 -4 -6 0 -19 9 -29 14 -18 15 -18 4
4 -6 12 -8 22 -4 22 4 0 -3 11 -16 25 -18 19 -26 22 -32 13 -6 -10 -8 -10 -8
0 0 7 -4 11 -8 8 -15 -9 -34 12 -41 45 -6 29 -11 34 -39 37 -20 2 -32 9 -32
18 0 40 -16 64 -39 59 -28 -5 -38 12 -45 75 -7 59 -13 70 -42 74 -20 3 -44 42
-47 75 -1 11 -4 18 -8 15 -4 -2 -12 4 -18 13 -6 10 -11 14 -11 9 0 -13 -40 25
-40 38 0 6 5 4 11 -4 8 -12 10 -12 7 -1 -2 8 -12 15 -21 17 -11 1 -14 -2 -10
-9 4 -7 -1 -5 -12 3 -10 8 -20 13 -22 12 -3 -2 -8 0 -11 4 -4 4 -1 4 6 0 6 -4
12 -5 12 -2 0 3 -10 10 -21 17 -17 9 -20 8 -13 -3 6 -10 5 -11 -7 -2 -8 6 -22
10 -31 9 -16 -3 -23 7 -19 28 1 5 -3 6 -8 2 -6 -3 -7 -13 -4 -23 3 -9 3 -14
-1 -10 -8 6 -14 30 -15 57 -1 11 -5 10 -16 -5 -10 -12 -13 -13 -10 -3 5 13 -4
15 -50 14 -42 -1 -60 4 -72 17 -12 14 -19 15 -30 6 -11 -9 -13 -7 -9 14 4 26
-13 33 -31 13 -4 -4 -3 -5 4 -1 16 9 24 -7 12 -24 -6 -11 -9 -12 -9 -2 0 7 -4
11 -9 7 -6 -3 -8 6 -5 20 3 16 0 25 -8 26 -72 4 -102 11 -114 26 -10 13 -13
14 -9 3 4 -11 -1 -16 -15 -16 -24 0 -25 4 -5 26 13 14 13 17 1 17 -8 0 -14 -3
-13 -6 1 -3 -2 -7 -8 -8 -5 -1 -9 6 -7 15 2 14 1 15 -7 2 -6 -9 -6 -18 0 -26
7 -8 6 -15 -2 -20 -8 -5 -9 -3 -5 5 6 8 2 11 -10 9 -12 -2 -19 4 -21 17 l-3
20 9 -20 c9 -19 10 -19 10 3 1 12 -5 23 -11 23 -30 3 -88 8 -163 13 -102 7
-120 10 -120 24 0 6 -3 14 -7 18 -4 3 -6 -3 -3 -15 2 -11 1 -21 -3 -21 -8 0
-37 42 -35 50 1 3 -13 6 -32 6 -31 0 -40 -14 -22 -32 14 -14 7 -26 -8 -14 -12
10 -15 10 -15 -1 0 -8 -6 -5 -15 7 -18 24 -19 40 -2 25 10 -8 14 -7 14 2 0 8
-17 12 -53 12 -50 0 -52 -1 -37 -17 19 -21 24 -22 20 -6 -3 17 26 16 40 -2 15
-19 17 -40 2 -40 -5 0 -8 3 -6 8 3 4 -2 13 -10 21 -13 12 -15 11 -9 -10 3 -13
3 -18 0 -11 -4 9 -10 10 -18 3 -6 -5 -21 -8 -31 -7 -11 2 -26 -1 -33 -7 -7 -6
-12 -6 -11 -1 1 5 1 11 -1 14 -1 3 -3 19 -5 35 -4 30 -4 30 9 6 7 -13 15 -20
18 -15 3 5 3 3 1 -4 -1 -7 1 -10 6 -7 5 3 12 1 16 -5 3 -5 11 -10 17 -10 7 0
2 9 -10 20 -12 12 -22 26 -22 33 0 8 -3 8 -9 -1 -7 -11 -9 -11 -14 0 -3 9 -18
14 -39 13 -18 -1 -43 2 -55 6 -16 6 -23 5 -23 -3 0 -7 -7 -3 -16 8 -8 10 -13
14 -10 8 7 -15 -21 -27 -29 -13 -4 5 -12 6 -18 2 -22 -13 -129 -10 -143 5 -12
11 -14 11 -15 -5 0 -16 -1 -16 -9 2 l-9 20 -1 -20 -1 -20 -9 20 -9 20 0 -20
c-1 -11 -5 -16 -9 -10 -11 16 -45 19 -37 3 3 -7 -1 -4 -9 6 -16 20 -16 20 -17
0 0 -11 -3 -14 -6 -6 -4 9 -8 10 -18 2 -10 -8 -15 -8 -20 0 -5 8 -11 7 -23 -2
-9 -7 -13 -8 -9 -2 4 7 -2 14 -13 17 -11 3 -23 0 -27 -5 -3 -6 -1 -8 5 -4 6 3
13 2 16 -3 7 -11 -14 -9 -34 4 -8 5 -27 10 -41 10 -14 0 -34 6 -43 14 -14 12
-17 12 -14 1 2 -8 -2 -14 -9 -15 -6 0 -14 -3 -18 -7 -9 -8 16 -5 32 5 6 4 14
3 17 -2 3 -5 19 -7 36 -6 16 1 28 0 26 -4 -3 -4 -40 -6 -83 -5 -83 1 -106 -3
-97 -17 3 -5 1 -9 -4 -9 -6 0 -8 -8 -5 -19 6 -22 -9 -27 -92 -30 -65 -2 -77
-9 -82 -43 -4 -27 -7 -30 -35 -33 -13 -1 -28 -3 -35 -4 -6 0 -13 -16 -15 -33
l-3 -33 -70 -5 c-67 -5 -70 -6 -79 -35 -6 -16 -12 -32 -13 -34 -3 -4 -36 -8
-108 -14 -20 -1 -31 -8 -33 -21 -3 -13 0 -16 10 -10 10 6 10 4 -1 -9 -8 -10
-16 -16 -18 -13 -3 2 -19 0 -36 -5 -18 -6 -65 -12 -106 -14 -74 -5 -101 -16
-101 -41 0 -8 -5 -14 -11 -14 -5 0 -8 -4 -5 -8 6 -11 -1 -11 -148 -12 -66 0
-124 4 -131 10 -6 5 -15 6 -19 2 -4 -4 -7 -2 -6 3 1 6 1 15 0 20 -1 6 -1 30 0
55 1 25 3 69 4 97 0 29 4 53 9 53 4 0 7 8 8 18 0 15 2 14 10 -3 8 -17 9 -16 6
7 -2 15 -1 25 4 23 4 -3 9 0 11 7 3 7 7 5 11 -6 4 -10 3 -15 -3 -11 -6 3 -10
-4 -9 -17 0 -13 3 -17 6 -10 2 6 8 10 13 7 4 -2 6 9 5 25 -1 17 4 35 13 42 13
11 14 11 7 -1 -5 -9 -4 -12 2 -8 5 3 8 21 6 39 -3 25 -2 29 6 18 9 -13 11 -12
11 3 0 15 4 16 20 7 16 -9 19 -8 13 6 -4 12 -3 15 5 10 7 -4 18 -4 25 1 6 4
21 8 32 8 16 0 20 6 19 33 -1 22 3 31 11 28 7 -2 12 3 12 12 0 10 4 27 8 40 7
20 9 21 20 6 9 -13 14 -14 19 -5 5 7 5 15 2 18 -3 3 2 12 12 19 9 7 17 18 17
26 0 7 10 13 21 13 25 1 94 51 94 68 0 7 -4 6 -10 -3 -8 -13 -10 -12 -10 3 0
9 7 17 15 17 8 0 15 -6 15 -12 0 -9 3 -10 8 -2 4 6 36 14 71 17 83 9 115 25
119 60 l3 27 103 0 c112 0 124 5 128 54 l2 26 296 1 c162 0 329 3 370 5 104 6
116 2 116 -38 l-1 -33 195 0 195 0 3 29 c2 16 0 32 -5 37 -5 5 -91 9 -191 9
-174 1 -182 2 -182 21 0 19 -10 19 -404 19 -401 0 -404 0 -409 -21z m-552
-298 c3 -5 2 -12 -3 -15 -5 -3 -9 1 -9 9 0 17 3 19 12 6z m1819 -160 c9 -7 16
-18 16 -24 0 -5 -9 -2 -20 8 -11 10 -23 15 -27 12 -3 -4 -1 -7 5 -7 7 0 12 -5
12 -12 0 -6 -8 -3 -20 7 -33 30 -2 45 34 16z m-42 -114 c34 -3 43 -12 43 -45
0 -23 5 -28 30 -30 17 -2 34 -7 38 -11 12 -12 16 -112 6 -139 -8 -21 -14 -23
-47 -18 -36 6 -123 9 -212 6 -25 0 -116 -1 -202 0 -153 0 -157 1 -164 23 -12
34 -13 47 -4 47 4 0 7 10 7 23 1 62 2 63 41 66 34 3 78 8 93 10 4 1 6 9 6 19
0 34 3 43 13 37 6 -3 10 -2 10 2 0 5 35 10 77 11 43 2 79 4 80 5 2 2 140 -2
185 -6z m-2104 -113 c-3 -14 -5 -12 -10 9 -3 19 -2 25 4 19 6 -6 8 -18 6 -28z
m-1 -46 c-3 -8 -6 -5 -6 6 -1 11 2 17 5 13 3 -3 4 -12 1 -19z m-303 -97 c6 -5
10 -27 8 -48 -1 -21 -3 -52 -4 -70 -1 -18 -5 -30 -10 -27 -4 3 -8 0 -8 -6 0
-6 -5 -8 -12 -4 -8 5 -9 2 -5 -9 4 -10 1 -17 -6 -17 -8 0 -6 -4 3 -10 13 -8
12 -10 -2 -10 -10 0 -21 0 -24 1 -4 0 -10 -4 -13 -10 -6 -9 -28 -16 -62 -20
-3 -1 -6 -8 -7 -16 -1 -8 -3 -22 -4 -30 -1 -15 -29 -28 -63 -29 -15 -1 -21 -9
-23 -31 -4 -34 -17 -45 -44 -40 -10 2 -18 -1 -18 -6 0 -6 -4 -8 -8 -5 -5 3 -8
-8 -7 -24 1 -17 0 -28 -3 -25 -3 2 -11 -3 -19 -13 -8 -9 -12 -12 -9 -7 2 6 1
17 -5 25 -7 12 -9 9 -9 -10 0 -20 -2 -22 -11 -10 -9 12 -10 11 -6 -6 2 -12 0
-30 -6 -40 -10 -17 -9 -18 9 -5 10 8 3 -1 -16 -20 -21 -20 -38 -30 -42 -24 -5
6 -8 5 -8 -3 0 -8 -5 -10 -12 -6 -8 5 -9 2 -4 -11 5 -15 4 -16 -9 -5 -12 10
-16 8 -25 -14 -12 -32 -20 -34 -15 -3 4 20 3 21 -9 4 -13 -16 -14 -15 -20 15
-4 18 -10 50 -13 71 -5 34 -3 37 20 37 45 0 57 10 57 46 0 31 3 34 29 34 30 0
53 19 50 42 -4 31 2 38 35 38 26 0 36 5 41 21 4 11 4 23 1 26 -11 11 16 33 39
33 27 0 42 16 47 50 2 18 9 25 27 26 27 2 51 28 51 56 0 10 6 19 13 19 6 1 17
2 22 4 6 1 18 3 29 3 13 2 17 7 13 23 -3 11 -4 26 -1 33 6 15 53 19 68 7z
m3848 -522 c1 6 11 -4 21 -22 17 -32 17 -32 -2 -10 -10 12 -21 20 -23 17 -3
-2 -11 4 -19 13 -13 16 -12 17 3 5 10 -8 17 -9 20 -3z m-4315 -71 c-3 -8 -6
-5 -6 6 -1 11 2 17 5 13 3 -3 4 -12 1 -19z m-112 -88 c-3 -5 4 -19 16 -31 20
-20 20 -22 3 -16 -17 6 -17 6 -3 -6 14 -10 14 -14 3 -25 -14 -13 -18 -4 -17
35 1 7 -3 10 -8 7 -5 -3 -6 -16 -3 -29 3 -12 1 -26 -4 -29 -6 -4 -9 11 -8 37
2 39 11 67 22 67 3 0 3 -4 -1 -10z m45 -16 c0 -8 -19 -13 -24 -6 -3 5 1 9 9 9
8 0 15 -2 15 -3z m601 -17 c13 -22 -6 -57 -31 -57 -24 0 -35 -16 -39 -54 0 -8
-16 -20 -35 -26 -33 -11 -34 -12 -41 -81 -7 -67 -8 -70 -36 -76 -16 -3 -30 -8
-30 -12 -12 -64 -15 -255 -5 -294 5 -20 13 -27 30 -27 26 0 35 -21 41 -97 2
-33 23 -57 50 -58 6 0 10 -13 10 -30 0 -26 -4 -30 -37 -36 -38 -6 -112 -4
-238 6 -70 6 -96 17 -83 38 3 5 -10 23 -28 40 -18 18 -29 25 -24 17 7 -12 6
-13 -7 -3 -8 7 -18 11 -21 8 -4 -3 -5 -2 -2 2 3 3 -1 13 -8 21 -10 13 -9 15 3
8 8 -4 6 0 -5 9 -11 9 -19 20 -18 25 3 10 -17 8 -36 -4 -9 -6 -12 -5 -7 2 3 6
-2 16 -11 22 -16 11 -16 11 2 6 20 -6 20 -6 1 9 -14 11 -16 15 -5 15 11 0 11
2 1 9 -13 8 -27 91 -25 141 1 14 3 60 5 102 2 49 8 82 17 90 12 11 12 10 6 -2
-7 -12 -6 -13 6 -4 8 6 22 10 32 9 15 -3 16 -1 5 13 -10 12 -10 14 0 8 7 -4
12 -1 12 8 0 9 8 30 18 48 10 18 17 38 15 44 -2 6 3 11 12 12 8 1 22 3 30 4 8
1 17 8 19 15 3 8 10 12 15 8 5 -3 13 -1 16 5 4 6 3 9 -2 8 -9 -3 -13 5 -13 25
0 12 33 18 112 21 21 0 38 4 38 7 0 4 15 6 34 4 27 -1 33 1 28 13 -3 9 -1 13
5 9 6 -4 14 0 17 9 4 10 2 13 -7 8 -7 -5 -7 -1 2 10 11 13 16 14 22 4 7 -10 9
-10 9 2 0 13 1 13 10 0 5 -8 10 -10 10 -4 0 5 21 11 47 13 26 1 49 3 50 5 10
10 56 -3 64 -17z m3866 -162 c8 -16 12 -27 8 -23 -5 4 -15 2 -24 -4 -9 -7 -13
-8 -8 -3 4 4 -1 17 -10 28 -10 10 -18 32 -19 49 l0 30 18 -24 c10 -13 26 -36
35 -53z m-4528 -321 c4 3 7 -4 7 -14 0 -18 -19 -21 -33 -5 -4 4 -2 5 5 1 9 -6
12 -1 9 16 -2 12 -2 17 0 10 3 -7 8 -10 12 -8z m-51 -158 c9 -19 8 -24 -4 -22
-21 3 -37 23 -30 35 11 17 22 13 34 -13z m427 -437 c39 0 91 1 117 3 25 2 45
0 42 -3 -5 -9 23 -5 32 4 4 3 11 4 15 1 5 -3 43 -7 86 -9 47 -3 80 -9 85 -17
18 -30 2 -160 -25 -196 -7 -9 -36 -12 -101 -10 l-91 3 -9 30 c-6 17 -12 32
-14 35 -2 3 -52 5 -110 5 -107 0 -107 0 -110 25 -5 36 -20 50 -53 50 -27 0
-29 2 -29 43 l0 43 48 -4 c26 -2 79 -3 117 -3z"/>
<path d="M445 3679 c-4 -6 -5 -12 -2 -15 2 -3 7 2 10 11 7 17 1 20 -8 4z"/>
<path d="M4675 3226 c10 -14 19 -26 22 -26 7 0 -17 39 -28 46 -6 3 -3 -5 6
-20z"/>
<path d="M106 2737 c3 -10 9 -15 12 -12 3 3 0 11 -7 18 -10 9 -11 8 -5 -6z"/>
<path d="M4960 2470 c0 -1640 3 -2470 10 -2470 7 0 10 830 10 2470 0 1640 -3
2470 -10 2470 -7 0 -10 -830 -10 -2470z"/>
<path d="M3154 4816 c-3 -8 -4 -25 -2 -38 3 -22 7 -23 98 -25 130 -4 138 -6
142 -46 l3 -32 72 -3 c78 -3 75 -1 85 -67 3 -17 12 -20 66 -21 35 -1 66 -4 69
-7 3 -3 8 -21 12 -39 l7 -33 112 -3 112 -3 0 -28 c0 -40 16 -49 90 -53 64 -3
65 -3 68 -33 5 -40 15 -45 94 -45 l67 0 3 -32 c3 -30 6 -33 40 -36 35 -3 37
-5 40 -40 3 -35 5 -37 41 -40 20 -2 37 -9 38 -15 3 -50 17 -67 57 -67 15 0 22
-6 22 -19 0 -36 12 -51 41 -51 30 0 49 -23 49 -59 0 -17 6 -21 29 -21 38 0 45
-12 47 -80 2 -79 1 -77 32 -83 41 -8 52 8 52 74 0 62 -18 93 -57 101 -12 2
-20 15 -23 38 -4 26 -10 35 -25 36 -11 1 -26 2 -32 3 -7 1 -13 8 -13 17 0 18
-23 39 -57 54 -13 5 -23 17 -23 25 0 9 -9 25 -19 36 -15 16 -26 19 -50 14 -31
-7 -31 -6 -31 34 0 39 -1 40 -37 43 -36 3 -38 5 -41 41 -3 35 -5 37 -38 37
-32 0 -34 2 -34 35 l0 35 -57 1 c-101 2 -98 1 -95 33 2 19 -4 36 -18 51 -18
19 -29 22 -67 19 -43 -4 -78 9 -68 26 2 4 -6 17 -18 28 -19 18 -37 22 -127 24
l-105 3 -5 35 -5 35 -72 3 -73 3 0 34 0 35 -74 0 -75 0 -3 38 -3 37 -118 3
c-95 2 -118 0 -123 -12z"/>
<path d="M2685 4521 c-3 -5 -2 -12 3 -15 5 -3 9 1 9 9 0 17 -3 19 -12 6z"/>
<path d="M2795 4521 c-3 -5 -2 -12 3 -15 5 -3 9 1 9 9 0 17 -3 19 -12 6z"/>
<path d="M3300 4455 c13 -14 26 -25 28 -25 3 0 -5 11 -18 25 -13 14 -26 25
-28 25 -3 0 5 -11 18 -25z"/>
<path d="M3333 4462 c10 -10 14 -22 10 -27 -5 -4 -2 -5 5 -1 11 6 10 12 -4 27
-9 10 -19 19 -22 19 -3 0 2 -8 11 -18z"/>
<path d="M4190 4166 c0 -2 8 -10 18 -17 15 -13 16 -12 3 4 -13 16 -21 21 -21
13z"/>
<path d="M4600 3653 c0 -6 8 -17 18 -24 16 -13 16 -13 2 6 -8 11 -16 22 -17
24 -2 2 -3 0 -3 -6z"/>
<path d="M4649 3475 c-6 -57 -4 -72 8 -72 7 0 11 3 8 5 -3 3 1 12 8 20 10 13
9 14 -2 7 -11 -6 -13 -4 -9 7 4 8 2 21 -3 29 -5 8 -9 10 -10 4z"/>
<path d="M4773 3449 c-2 -23 3 -25 10 -4 4 8 3 16 -1 19 -4 3 -9 -4 -9 -15z"/>
<path d="M4765 3400 c2 -12 7 -25 10 -28 3 -3 4 4 2 16 -2 12 -6 24 -10 28 -3
4 -4 -4 -2 -16z"/>
<path d="M4702 3401 c2 -19 -4 -24 -12 -11 -5 8 -10 10 -10 4 0 -5 15 -25 33
-42 22 -21 34 -28 34 -18 0 8 -3 13 -7 11 -4 -3 -15 4 -24 14 -10 11 -13 22
-8 25 6 3 13 -1 16 -10 4 -9 9 -14 13 -11 9 10 34 -14 26 -26 -4 -6 -1 -7 6
-3 9 6 8 13 -5 27 -9 10 -21 16 -25 13 -8 -4 -13 8 -11 27 1 3 -5 6 -13 6 -8
0 -14 -3 -13 -6z"/>
<path d="M4643 3373 c0 -9 4 -10 14 -2 7 6 13 12 13 14 0 1 -6 2 -13 2 -8 0
-14 -6 -14 -14z"/>
<path d="M4672 3327 c-8 -9 -3 -21 17 -45 26 -33 27 -33 29 -9 1 14 -6 31 -16
38 -14 11 -15 11 -4 -1 6 -8 12 -20 12 -28 0 -9 -7 -5 -19 9 -14 17 -16 28 -9
37 6 6 8 12 5 12 -2 0 -9 -6 -15 -13z"/>
<path d="M4700 3336 c0 -2 8 -10 18 -17 15 -13 16 -12 3 4 -13 16 -21 21 -21
13z"/>
<path d="M4764 3306 c1 -8 5 -18 8 -22 4 -3 5 1 4 10 -1 8 -5 18 -8 22 -4 3
-5 -1 -4 -10z"/>
<path d="M4733 3295 c-3 -9 -3 -18 -1 -21 3 -3 8 4 11 16 6 23 -1 27 -10 5z"/>
<path d="M4754 3256 c1 -14 4 -28 7 -31 3 -3 5 6 5 19 -1 14 -4 28 -7 31 -3 3
-5 -6 -5 -19z"/>
<path d="M4755 3199 c-5 -8 -4 -10 3 -5 8 5 12 -1 13 -16 1 -18 2 -19 6 -4 6
23 -12 43 -22 25z"/>
<path d="M1893 3162 c-6 -4 -14 -21 -16 -37 -3 -23 -9 -30 -28 -31 -13 -1 -30
-2 -37 -3 -10 -1 -12 -21 -10 -78 l3 -78 35 -5 c28 -4 37 -11 45 -35 5 -16 14
-33 20 -37 5 -4 51 -8 101 -8 97 0 109 5 116 50 2 19 10 26 33 30 25 4 31 11
36 43 3 21 6 55 5 75 -1 33 -4 37 -31 42 -23 4 -31 11 -33 30 -7 46 -18 50
-126 50 -55 0 -106 -4 -113 -8z"/>
<path d="M3393 3154 c-3 -9 -6 -25 -7 -37 -1 -17 -9 -23 -36 -27 -35 -5 -35
-6 -38 -59 -5 -85 2 -101 43 -101 32 0 35 -3 35 -28 0 -45 16 -52 110 -52 94
0 117 9 122 50 2 21 9 26 40 28 l36 3 7 69 c4 38 4 74 0 79 -3 6 -22 11 -41
11 -31 0 -34 3 -34 28 0 46 -15 52 -127 52 -85 0 -105 -3 -110 -16z"/>
<path d="M4719 3157 c6 -8 7 -18 3 -22 -4 -5 -1 -5 6 -1 10 6 10 11 1 22 -6 8
-14 14 -16 14 -3 0 0 -6 6 -13z"/>
<path d="M4683 3115 c0 -8 4 -12 9 -9 5 3 6 10 3 15 -9 13 -12 11 -12 -6z"/>
<path d="M2524 2986 c-12 -31 0 -51 34 -54 32 -3 33 -2 30 30 -2 28 -7 34 -31
36 -17 2 -29 -2 -33 -12z"/>
<path d="M2840 2965 c0 -30 3 -35 23 -35 31 0 45 16 39 46 -3 19 -11 24 -33
24 -26 0 -29 -3 -29 -35z"/>
<path d="M3077 2994 c-4 -4 -7 -20 -7 -36 0 -28 2 -29 38 -26 34 3 37 6 37 33
0 26 -4 30 -30 33 -17 2 -34 0 -38 -4z"/>
<path d="M2607 2913 c-9 -9 -9 -366 1 -378 4 -5 15 -14 25 -20 10 -5 18 -14
17 -18 -1 -4 5 -18 13 -31 9 -13 17 -38 19 -57 2 -26 8 -34 28 -39 15 -4 26
-14 28 -27 5 -36 26 -44 99 -41 67 3 68 3 73 33 4 23 11 31 30 33 37 6 50 21
50 58 0 18 5 36 10 39 6 3 10 17 10 31 0 20 4 24 19 19 37 -11 42 14 39 211
l-3 189 -73 3 -73 3 3 -33 c2 -20 9 -34 18 -34 8 -1 23 -2 33 -3 15 -1 18 -8
15 -43 l-3 -43 -135 -3 c-171 -4 -180 -2 -180 43 0 43 10 49 80 46 66 -2 89
14 70 48 -10 19 -20 21 -109 21 -54 0 -101 -3 -104 -7z"/>
<path d="M4278 2302 c-22 -4 -30 -33 -25 -93 5 -59 12 -69 48 -69 l29 0 0
-195 0 -195 25 -6 c54 -14 55 -11 55 205 l0 200 -37 3 -38 3 -3 71 c-3 75 -11
86 -54 76z"/>
<path d="M4438 1743 c-10 -2 -18 -10 -19 -16 0 -7 -2 -161 -4 -344 -1 -182 -6
-336 -9 -342 -4 -6 -20 -11 -36 -11 -36 0 -39 -10 -43 -140 l-2 -95 -35 -5
c-31 -4 -35 -9 -38 -37 -3 -26 -8 -33 -25 -33 -39 0 -46 -13 -49 -85 l-3 -70
-37 -3 c-37 -3 -38 -4 -38 -43 l0 -40 38 3 c34 3 37 6 42 38 4 31 9 36 40 40
l35 5 3 73 3 72 34 0 c33 0 35 2 35 34 0 36 12 46 55 46 24 0 24 1 27 113 l3
112 28 -3 c19 -3 35 3 48 17 18 19 19 40 19 352 0 327 0 332 -22 350 -11 11
-24 18 -27 18 -3 -1 -14 -3 -23 -6z"/>
<path d="M1102 523 c3 -36 5 -38 38 -38 33 0 35 2 35 35 0 33 -2 35 -38 38
l-38 3 3 -38z"/>
<path d="M1174 456 c-3 -13 -4 -35 -2 -47 2 -20 10 -25 41 -27 35 -3 37 -5 37
-37 0 -31 3 -34 33 -37 28 -3 33 -7 37 -38 l5 -35 75 -5 75 -5 5 -35 5 -35 73
-3 c62 -2 72 -5 72 -21 0 -35 32 -51 103 -51 64 0 67 -1 67 -24 0 -60 -50 -56
679 -54 l666 3 -552 2 -553 3 0 30 c0 17 -6 33 -12 35 -7 2 -58 6 -113 7
l-100 4 -5 34 -5 35 -75 5 c-71 5 -75 6 -78 30 -6 43 -20 50 -93 50 l-69 0 0
29 c0 40 -16 49 -90 53 l-65 3 -5 35 c-4 31 -9 35 -36 38 -28 3 -32 7 -38 43
-6 37 -8 39 -41 39 -28 0 -36 -4 -41 -24z"/>
<path d="M4024 453 c-10 -49 -13 -53 -37 -53 -29 0 -44 -15 -49 -50 -2 -19
-11 -26 -40 -33 -32 -8 -37 -13 -40 -40 l-3 -32 -75 -5 -75 -5 -5 -35 -5 -35
-112 -3 c-62 -1 -113 -6 -114 -10 0 -4 -2 -17 -3 -29 -2 -13 -5 -25 -8 -28 -3
-3 -69 -7 -147 -10 -77 -2 -146 -7 -151 -10 -16 -10 -12 -62 6 -69 9 -3 78 -6
155 -6 103 0 141 3 143 13 3 6 7 24 10 39 l6 28 110 0 110 0 0 35 0 35 68 0
c59 0 72 3 90 23 12 13 22 31 22 40 0 10 8 17 18 17 20 0 55 34 65 63 4 9 13
17 20 17 18 0 47 32 47 53 0 10 8 17 18 17 31 0 64 43 56 74 -5 22 -12 26 -40
26 -29 0 -35 -4 -40 -27z"/>
</g>
</svg>
