<?xml version="1.0" standalone="no"?>
<!DOCTYPE svg PUBLIC "-//W3C//DTD SVG 20010904//EN"
 "http://www.w3.org/TR/2001/REC-SVG-20010904/DTD/svg10.dtd">
<svg version="1.0" xmlns="http://www.w3.org/2000/svg"
 width="64.000000pt" height="64.000000pt" viewBox="0 0 64.000000 64.000000"
 preserveAspectRatio="xMidYMid meet">

<g transform="translate(0.000000,64.000000) scale(0.100000,-0.100000)"
fill="#000000" stroke="none">
<path d="M203 503 l-103 -56 0 -154 c0 -84 2 -153 4 -153 3 0 64 -14 136 -30
l132 -31 104 57 c57 32 104 61 104 65 0 8 -48 19 -160 39 -110 19 -100 1 -100
171 0 82 -3 149 -7 149 -5 -1 -54 -26 -110 -57z m97 -107 l0 -134 -67 14
c-125 25 -113 16 -113 92 l0 67 88 47 c48 26 88 48 90 48 1 0 2 -60 2 -134z
m-33 -150 c5 -4 -130 -76 -142 -76 -3 0 -5 24 -5 54 l0 54 71 -14 c40 -7 74
-16 76 -18z m156 -27 c59 -12 104 -25 100 -30 -4 -4 -40 -26 -80 -48 l-72 -41
-108 26 c-59 14 -109 27 -111 29 -4 3 146 83 158 85 3 0 54 -10 113 -21z"/>
<path d="M340 550 c0 -5 9 -10 20 -10 11 0 20 5 20 10 0 6 -9 10 -20 10 -11 0
-20 -4 -20 -10z"/>
<path d="M340 510 c0 -5 9 -10 20 -10 11 0 20 5 20 10 0 6 -9 10 -20 10 -11 0
-20 -4 -20 -10z"/>
<path d="M340 470 c0 -5 9 -10 20 -10 11 0 20 5 20 10 0 6 -9 10 -20 10 -11 0
-20 -4 -20 -10z"/>
<path d="M340 430 c0 -5 9 -10 20 -10 11 0 20 5 20 10 0 6 -9 10 -20 10 -11 0
-20 -4 -20 -10z"/>
<path d="M340 390 c0 -5 9 -10 20 -10 11 0 20 5 20 10 0 6 -9 10 -20 10 -11 0
-20 -4 -20 -10z"/>
<path d="M340 350 c0 -5 9 -10 20 -10 11 0 20 5 20 10 0 6 -9 10 -20 10 -11 0
-20 -4 -20 -10z"/>
<path d="M340 310 c0 -5 9 -10 20 -10 11 0 20 5 20 10 0 6 -9 10 -20 10 -11 0
-20 -4 -20 -10z"/>
</g>
</svg>
